<?xml version="1.0" encoding="utf-8"?>
<!-- Generator: Adobe Illustrator 23.0.0, SVG Export Plug-In . SVG Version: 6.00 Build 0)  -->
<svg version="1.1" id="Capa_1" xmlns="http://www.w3.org/2000/svg" xmlns:xlink="http://www.w3.org/1999/xlink" x="0px" y="0px"
	 viewBox="0 0 1176.5 1290.9" style="enable-background:new 0 0 1176.5 1290.9;" xml:space="preserve">
<style type="text/css">
	.st0{display:none;}
	.st1{display:inline;fill:none;stroke:#FDFFFF;stroke-width:26;stroke-miterlimit:10;}
	.st2{display:inline;}
	.st3{fill:#FFFFFF;}
	.st4{display:inline;opacity:0.28;}
	.st5{display:inline;fill:#E27663;}
	.st6{display:inline;opacity:0.62;}
	.st7{fill:#EAAC98;stroke:#D67260;stroke-width:2.25;stroke-miterlimit:10;}
	.st8{fill:none;stroke:#77777A;stroke-width:9;stroke-miterlimit:10;}
	.st9{fill:#77777A;}
	.st10{fill:#D67260;}
	.st11{fill:#FFFFFF;stroke:#A9A8A8;stroke-width:9;stroke-miterlimit:10;}
	.st12{fill:#FFFFFF;stroke:#A9A8A8;stroke-width:7;stroke-miterlimit:10;}
	.st13{fill:#FFFFFF;stroke:#88868B;stroke-width:7;stroke-miterlimit:10;}
	.st14{fill:#8B427A;stroke:#A9A8A8;stroke-width:5;stroke-miterlimit:10;}
	.st15{fill:#72325E;}
	.st16{fill:#F5ECD8;}
	.st17{fill:#3E3E3E;}
	.st18{fill:#F2F2F2;}
	.st19{fill:#FF0000;}
</style>
<g id="background__x2B__elipse__x2B__rocket_xA0_Imagen_1_" class="st0">
	<path class="st1" d="M1042.7,435.1c0.7,2.6,1.8,7.1,1.8,10.8c1.3,1.5,1.1,4.4,1.6,6.2c2.5,9.7,3.8,18.8,5.1,27.9
		c0.9,7.3,1.6,13.7,1.4,20.3c0.7,2.7,1.3,5.3,1.2,8.2c2.1,11.7,1.8,22.1,3.2,31.2c0.5,5.5,0,11.3-0.6,16.1
		c0.8,7.3,0.7,13.9-0.4,20.8c-0.8,19-2.8,37.4-5.8,55.1c0.2,0.9-0.7,1.1-0.4,2c-0.5,5.7-1.1,10.7-3.3,16.8c-0.4,5.8-2.6,12-3.9,17.9
		c-7.6,33-19.3,65.1-34.2,95.3c-6.6,11-12.1,22.8-18.1,32.8C927.4,901.8,825.1,984.1,696,1016.8c-183,46.3-368.4-20.6-482.5-155.5
		c-4.9-4.4-9.1-9.9-12.2-14.8c-12.3-14.8-22.7-30.1-32.2-45.5c-3.3-5.8-6.9-12.4-9.3-18.4c-9.6-15.5-17.8-33.1-24.1-50.4l-7.6-18.8
		c-4.5-10.2-8.2-21.4-10.3-33.1c-1.8-3.3-2.7-6.9-3.6-10.4c-0.7-2.7-1.6-6.2-1.4-9.1c-3.8-11.3-5.8-23-7-35
		c-1.6-6.2-2.2-12.6-2.9-19c-2.9-19-3.9-37.6-2.1-56.8c-1.6-6.2-1.4-12.8-0.3-19.7c0.6-19.9,2.3-39.2,6-58c1.3-6,1.5-12.6,3.9-17.9
		C146.6,280.8,278,134.7,461,88.4c129.1-32.7,258.1-9.8,364.3,52.7c10,5.9,20.4,13.6,30.5,20.5c28.8,21,55.2,43.4,77.8,69.7
		c3.8,3.7,7,8.6,10.7,12.3c4,4.6,7.1,9.5,12,13.9l0.2,0.9c11.3,15,22,31.1,31.8,47.5c3.4,5.7,6.7,11.5,9.2,17.4
		c3.1,4.9,6.2,9.7,8.4,14.8c4,8.4,8.5,18.5,12.9,28.7c1.6,2.4,2.3,5.1,3,7.7c3.3,5.8,5.7,11.7,7.3,17.9c3.4,9.5,7,19.9,9.4,29.6
		c0.4,1.8,1.5,2.4,1.1,4.4C1041.1,428.9,1041.8,431.6,1042.7,435.1z"/>
	<g class="st2">
		<g>
			<path class="st3" d="M1029.1,392.4l-126.4,32L845.2,391l-107,27.1l-4.9-19.5l115.9-29.3l56.7,34.6l115.9-29.3
				C1025.1,380.3,1027.5,386.3,1029.1,392.4z"/>
		</g>
		<g>
			<path class="st3" d="M1051.2,480c0.9,7.3,1.6,13.7,1.4,20.3l-128.1,32.4l-33.8,56.5l-115.8,29.3l-4.7-18.6l107.8-27.3l33.4-57.4
				L1051.2,480z"/>
		</g>
		<g>
			<path class="st3" d="M1042.7,435.1c0.7,2.6,1.8,7.1,1.8,10.8l-202.5,51.2l-4.9-19.5l202.5-51.2
				C1041.1,428.9,1041.8,431.6,1042.7,435.1z"/>
		</g>
		<g>
			<path class="st3" d="M997.5,323.3l-147.7,37.4L783.3,321l-6.6-4l9.9-16.6l8.6,4.4l57.9,35.2l135.2-34.2
				C991.7,311.6,995,317.4,997.5,323.3z"/>
		</g>
		<g>
			<path class="st3" d="M1056.4,555.8c0.8,7.3,0.7,13.9-0.4,20.8l-119.3,30.2l-35.3,57.8l-5.3,8.9l-16.5-9.9l5.3-8.9l38-65.2
				L1056.4,555.8z"/>
		</g>
		<g>
			<path class="st3" d="M777.3,598.2c-7.1-13.3-22.7-18.8-37.7-15c-19.4,4.9-31.5,24-26.6,43.4c4.9,19.5,24.8,31.3,44.3,26.4
				c16.8-4.3,27.9-20.2,27.3-37l-1.8-7.1C781.9,605.5,780.8,601.1,777.3,598.2z M753.3,637.3c-11.5,2.9-22.5-3.7-25.2-14.3
				s3.9-21.7,15.4-24.6c10.6-2.7,21.7,3.9,24.3,14.5S763.9,634.6,753.3,637.3z"/>
		</g>
		<g>
			<path class="st3" d="M841.5,476.6c-7.3-14.1-23.3-21.4-39.2-17.4c-20.3,5.1-31.3,24.9-26.4,44.3c4.9,19.5,24,31.6,44.3,26.5
				c15.9-4,26.5-18,26.2-33.9c0.8-4,0.2-6.6-0.8-10.2C844.8,482.3,844.2,479.7,841.5,476.6z M816.2,514.1
				c-11.5,2.9-22.5-3.7-25.2-14.3c-2.7-10.6,3.7-22.6,15.2-25.5c10.6-2.7,21.9,4.8,24.6,15.4C833.4,500.3,826.8,511.4,816.2,514.1z"
				/>
		</g>
		<g>
			<g>
				<path class="st3" d="M1069,627.2c-3.7,6.8-7.3,13.7-11.2,20.1l-60.9,15.4l-4.1-16.2L1069,627.2z"/>
			</g>
			<g>
				<path class="st3" d="M995.7,647.4c-0.2-0.9-0.2-0.9-1.3-1.5c-5.2-9.1-16.4-12.8-26.2-10.4c-14.2,3.6-23,17.1-19.4,31.3
					c3.4,13.3,17.8,21.9,31.9,18.3c9.8-2.5,17.6-12,17.8-22.4c0.7-1.1,0.7-1.1,0.4-1.9c0.5-2.1,0-3.8-0.6-6.5
					C997.8,651.5,997.4,649.8,995.7,647.4z M977.9,673.6c-7.9,2-15.7-2.6-17.5-9.7c-2-7.9,2.6-15.7,10.6-17.7
					c7.1-1.8,15.7,2.6,17.8,10.6C990.5,663.8,985,671.8,977.9,673.6z"/>
			</g>
		</g>
		<g>
			<g>
				<path class="st3" d="M956.3,257.5l-58.3,14.8l-4-15.9l50.3-12.7C948.4,248.2,951.5,253.1,956.3,257.5z"/>
			</g>
			<g>
				<path class="st3" d="M898,257.2c-0.2-0.9-1.4-1.5-1.4-1.5c-6.2-9.7-16.6-13.7-27.2-11c-14.2,3.6-22.7,18-19.4,31.3
					c3.6,14.1,17.8,21.8,31.9,18.3c10.6-2.7,17.6-12,18.7-22.6c0,0,0.7-1.1,0.5-2c-0.5-1.8,0-3.8-0.7-6.4
					C899.8,260.5,898.5,259,898,257.2z M879.2,283.6c-7.9,2-15.7-2.6-17.7-10.5c-2-8,2.6-15.7,10.6-17.7c7.1-1.8,15.7,2.6,17.8,10.6
					C891.8,273.8,886.3,281.8,879.2,283.6z"/>
			</g>
		</g>
		<g>
			<path class="st3" d="M743.9,395.9c-7.6-15-24.5-23-41.4-18.7c-19.4,4.9-31.4,24.9-26.4,44.4c4.7,18.6,24.7,30.4,44.1,25.5
				c15-3.8,25.9-16.9,26.9-31.3c0.8-4,0.7-8.6-0.2-12.2C746.2,401,744.6,398.6,743.9,395.9z M716.4,432
				c-10.6,2.7-22.8-4.5-25.3-14.3c-2.9-11.5,4.6-22.8,15.2-25.5c10.6-2.7,21.7,3.9,24.6,15.4C733.4,417.4,727,429.4,716.4,432z"/>
		</g>
		<g>
			<path class="st3" d="M751.5,258.5c-18.6,4.7-31.3,24.9-26.4,44.3c4.9,19.5,25.5,30.3,44,25.6c5.3-1.4,10.4-3.5,14.1-7.3
				c5.5-4.2,8.8-9.8,11.9-16.2c1.3-6,2.5-12.8,0.7-19.9C791,265.5,771,253.6,751.5,258.5z M741,298.8c-2.9-11.5,3.7-22.6,14.3-25.3
				c10.6-2.7,22.6,3.7,25.5,15.2c2.7,10.6-4.8,21.9-15.5,24.6C754.8,316,743.7,309.4,741,298.8z"/>
		</g>
		<g>
			<path class="st3" d="M901.3,664.7c-4-4.6-10.6-8.6-16.5-9.9c-6-1.3-11.7-1.7-18-0.1c-19.4,4.9-30.4,24.6-25.5,44
				c4.9,19.4,24,31.6,43.4,26.7c19.4-4.9,31.4-24.9,26.4-44.4C909.6,674.8,906.2,669.1,901.3,664.7z M880.7,709.4
				c-10.6,2.7-21.7-3.9-24.3-14.5c-2.9-11.5,3.9-21.7,14.5-24.3c11.5-2.9,22.3,2.8,25.2,14.3C898.8,695.5,892.2,706.5,880.7,709.4z"
				/>
		</g>
	</g>
	<g class="st2">
		<g>
			<path class="st3" d="M370.8,490.3l4.9,19.5l-107.8,27.3l-33.7,56.5L106,626c-1.6-6.2-2.2-12.6-2.9-19l118.5-30l33.4-57.4
				L370.8,490.3z"/>
		</g>
		<g>
			<polygon class="st3" points="128.1,713.6 269.6,677.8 326.4,712.3 426.3,687.1 433.4,685.3 438,703.8 429.2,706.1 323.1,732.9 
				265.7,699.5 135.7,732.3 			"/>
		</g>
		<g>
			<path class="st3" d="M317.2,609.3l4.9,19.5l-204.3,51.7c-1.8-3.3-2.7-6.9-3.6-10.4c-0.7-2.7-1.6-6.2-1.4-9.1L317.2,609.3z"/>
		</g>
		<g>
			<path class="st3" d="M293,439.5l-43.6,73.1l-148.5,37.6c-1.6-6.2-1.4-12.8-0.3-19.7l136.2-34.5l35-58.7l4.7-7.8L293,439.5z"/>
		</g>
		<g>
			<path class="st3" d="M367.5,793.2l-9.9,16.6l-8.9-5.3l-57.6-34.3l-122,30.9c-3.3-5.8-6.9-12.4-9.3-18.4l134.4-34l65.4,39
				L367.5,793.2z"/>
		</g>
		<g>
			<path class="st3" d="M453.2,655.8c-15,3.8-26.1,16-26.9,31.3c-0.9,4-0.6,8.6,0.3,12.2c0.7,2.6,1.1,4.4,2.7,6.9
				c7.6,15,24.9,23.8,41.6,19.5c19.4-4.9,31.3-24.8,26.4-44.3C492.3,661.9,472.6,650.9,453.2,655.8z M466.8,709.8
				c-10.6,2.7-22.6-3.7-25.3-14.3c-2.7-10.6,4.8-21.9,15.4-24.6c10.6-2.7,21.7,3.9,24.4,14.5S477.4,707.1,466.8,709.8z"/>
		</g>
		<g>
			<path class="st3" d="M339,576.5c-15.9,4-27.4,18.2-27.1,34.2c0,3.8-0.2,6.6,0.7,10.2c0.9,3.5,2.4,6,4.2,9.3
				c7.3,14.1,24.2,21.2,40.1,17.1c19.4-4.9,31.3-24.9,26.4-44.3C378.4,583.5,358.5,571.6,339,576.5z M352.9,631.3
				c-10.6,2.7-22.6-3.7-25.3-14.3c-2.7-10.6,4.6-22.8,15.2-25.5c10.6-2.7,21.9,4.8,24.6,15.4C370.1,617.5,363.5,628.6,352.9,631.3z"
				/>
		</g>
		<g>
			<g>
				<path class="st3" d="M259.7,831.8l4.2,16.8l-50.4,12.8c-4.9-4.4-9.1-9.9-12.2-14.8L259.7,831.8z"/>
			</g>
			<g>
				<path class="st3" d="M276.9,810.5c-10.6,2.7-18.8,11.4-19,21.8c-0.6,1.1-0.6,1.1-0.4,2c0.7,2.7,0.2,4.6,0.9,7.3
					c0.7,2.7,2,4.2,2.5,6c0.2,0.9,0.2,0.9,1.3,1.5c5.1,9.1,16.6,13.7,27.3,11c14.1-3.6,21.8-17.8,18.5-31
					C304.3,814.8,291,806.9,276.9,810.5z M286.5,848.5c-8,2-15.7-2.6-17.5-9.7c-2-7.9,2.6-15.7,10.6-17.7c7.9-2,15.7,2.6,17.7,10.6
					C299,838.8,294.5,846.5,286.5,848.5z"/>
			</g>
		</g>
		<g>
			<g>
				<path class="st3" d="M89.3,477.1l76.2-19.3l-4.1-16.2L100,457.2C96.1,463.5,92.5,470.4,89.3,477.1z"/>
			</g>
			<g>
				<path class="st3" d="M178,419.7c-10.6,2.7-17.9,11.1-18.8,22.6c0,0-0.6,1.1-0.4,2c-0.5,2,0,3.8,0.7,6.5c0.7,2.6,1.1,4.4,2.5,5.9
					c0.2,0.9,1.3,1.5,1.3,1.5c6,8.8,16.6,13.7,27.3,11c14.1-3.6,22.1-16.9,18.5-31C205.6,424.9,192.1,416.1,178,419.7z M187.8,458.6
					c-8,2-15.7-2.6-17.7-10.5c-2-8,2.6-15.7,10.6-17.7c7.9-2,15.7,2.6,17.7,10.6C200.4,448.8,195.8,456.5,187.8,458.6z"/>
			</g>
		</g>
		<g>
			<path class="st3" d="M387.8,456.9c-17.7,4.5-28.9,19.6-27.6,36.1c0.7,2.7,0.5,5.5,1.2,8.2c0.9,3.5,2.9,7.7,4.7,11
				c8.7,11.9,23.5,18.5,39.4,14.5c19.5-4.9,30.5-24.6,25.8-43.2C426.3,464.1,407.3,452,387.8,456.9z M401.6,511.7
				c-11.5,2.9-22.8-4.6-25.3-14.3c-2.9-11.5,3.7-22.6,15.2-25.5c10.6-2.7,21.7,3.9,24.6,15.4C418.7,497.1,412.3,509,401.6,511.7z"/>
		</g>
		<g>
			<path class="st3" d="M287.3,376c-19.4,4.9-30.4,24.6-25.5,44.1c1.8,7.1,5.1,12.9,10,17.2c4.9,4.4,11.3,7.5,17.3,8.8
				c5.1,1.6,10.6,1.1,15.9-0.3c19.5-4.9,31.6-24,26.6-43.4C326.7,383,306.8,371.1,287.3,376z M301.2,430.8
				c-10.6,2.7-21.7-3.9-24.4-14.6c-2.9-11.5,3.7-22.6,14.3-25.3c11.5-2.9,22.6,3.7,25.5,15.2C319.3,416.8,312.7,427.9,301.2,430.8z"
				/>
		</g>
		<g>
			<path class="st3" d="M374.4,779.3c-5.3,1.3-11.1,4.7-14.8,8.4c-5.5,4.2-8.6,10.6-10.8,16.8c-1.3,6-2.4,12.8-0.8,19
				c4.9,19.4,24.9,31.4,44.4,26.4c19.4-4.9,31.3-24.9,26.4-44.3C413.7,786.2,393.8,774.3,374.4,779.3z M388.2,834
				c-10.6,2.7-21.7-3.9-24.4-14.5c-2.9-11.5,3.9-21.7,14.5-24.3c10.6-2.7,22.4,2.8,25.3,14.3C406.3,820.1,398.8,831.3,388.2,834z"/>
		</g>
	</g>
</g>
<g id="Capa_5" class="st0">
</g>
<g id="Objeto_inteligente_vectorial_xA0_Imagen_1_" class="st0">
	<g class="st4">
		
			<image style="overflow:visible;enable-background:new    ;" width="697" height="410" xlink:href="393801CE.png"  transform="matrix(1 0 0 1 264.5957 641.2341)">
		</image>
	</g>
	<g class="st2">
		<path class="st3" d="M455.8,1015.5c1.3-9,1.3-18.3-0.3-27.7c-8.1-48.1-53.7-80.5-101.8-72.4c-20.4,3.4-37.9,13.6-50.8,27.8
			C349.1,976,400.9,1000.6,455.8,1015.5z"/>
		<path class="st3" d="M963.7,842c-16.7-9.1-36.5-12.8-56.7-9.4c-48.1,8.1-80.5,53.7-72.4,101.8c1.3,7.8,3.6,15.2,6.7,22
			C889.1,925.3,930.3,886.4,963.7,842z"/>
		<circle class="st3" cx="487.6" cy="936.6" r="59.8"/>
		<circle class="st3" cx="783.4" cy="886.7" r="59.8"/>
		<path class="st3" d="M754,845.8c-42.4-20.9-101.8-164-101.8-164l-103,59.3c-3.5,86.9-41.5,150.5-41.5,150.5L412,1003.4
			c88.3,33.4,187.2,41.3,285.5,16.4c69.8-17.7,131.8-49.8,183.9-92.3L754,845.8z"/>
	</g>
	<path class="st5" d="M990.2,338.6"/>
	<g class="st6">
		
			<image style="overflow:visible;enable-background:new    ;" width="650" height="524" xlink:href="393801C9.png"  transform="matrix(1 0 0 1 250.5957 324.234)">
		</image>
	</g>
	<g class="st2">
		<g>
			<path class="st7" d="M646.9,416.9c-34.2-46.9-73.7-35.7-92.9-20.5c-18.9-37.5-47.7-35-64.4-29.1s-40.6,22.1-31.7,63.2
				c-24.5,0.3-62.3,16.4-59.3,74.4c-53.5,37.2-17.5,85.5-17.5,85.5l166.6-59l166.6-59C714.3,472.3,711.9,412.1,646.9,416.9z"/>
			<circle class="st8" cx="445.2" cy="468.4" r="10.6"/>
			<circle class="st8" cx="456.1" cy="523" r="10.4"/>
			<circle class="st8" cx="522.6" cy="503.9" r="10.2"/>
			<circle class="st8" cx="532.7" cy="458.8" r="9.1"/>
			<circle class="st8" cx="584.4" cy="419.1" r="9.1"/>
			<circle class="st8" cx="528.9" cy="426.9" r="7.6"/>
			<circle class="st8" cx="486.8" cy="395.4" r="7.6"/>
			<path class="st8" d="M521.6,424.8c0,0-21.9-5.8-30.1-23.4"/>
			<path class="st8" d="M541.3,455.8c0,0,31.5-5.3,40.1-28.1"/>
			<circle class="st8" cx="610.1" cy="468.5" r="9.5"/>
			<path class="st8" d="M514.3,509.8c0,0-21.3,10.7-21.5,41"/>
			<path class="st8" d="M445.8,524.2c0,0-21.5,5.3-39.5-10.2"/>
			<g>
				<g>
					<path class="st9" d="M454,477c17.6,8.8,39,6.7,54.1-5.8c5-4.1-2.1-11.1-7.1-7.1c-11.8,9.7-29.8,10.4-42,4.2
						C453.4,465.5,448.3,474.1,454,477L454,477z"/>
				</g>
			</g>
			<path class="st8" d="M619.1,465.3c0,0,26.2-17.7,23.9-37.4"/>
			<path class="st10" d="M395.9,585.1c0,0-19.7-51.8,20.8-80.1c-1.2-32.4,22.6-66.3,54.1-64.3c-7.1-14.2-69.1-20.2-72.2,64.2
				c-24.3,26.9-35.7,40.3-19.7,82.1c16.3-3.7,16.3-3.7,16.3-3.7"/>
			<path class="st10" d="M700.8,477.1c0,0-17.2-52.6-66.6-49.2c-19.5-25.9-59.3-37.3-82.6-15.9c-3.4-15.5,41-59.2,96.5,4.4
				c35.9,5.6,53.1,8.8,67,51.4c-15,7.4-15,7.4-15,7.4"/>
			<path class="st8" d="M646.9,416.9c-34.2-46.9-73.7-35.7-92.9-20.5c-18.9-37.5-47.7-35-64.4-29.1s-40.6,22.1-31.7,63.2
				c-24.5,0.3-62.3,16.4-59.3,74.4c-53.5,37.2-17.5,85.5-17.5,85.5l166.6-59l166.6-59C714.3,472.3,711.9,412.1,646.9,416.9z"/>
		</g>
		<g>
			<path class="st11" d="M320.2,739.3l53.8,14.4c16.8,4.5,31.9-11.5,26.3-28l-19.8-58.5c-5.6-16.5-27.3-20.1-37.9-6.3l-34,44.1
				C299.1,717.3,305.2,735.3,320.2,739.3z"/>
			<path class="st12" d="M836.8,517.5L782.6,503c-16.8-4.5-31.8,11.5-26.3,28l19.9,58.9c5.6,16.5,27.3,20.1,37.9,6.3l34.2-44.4
				C857.9,539.5,851.8,521.5,836.8,517.5z"/>
			<path class="st11" d="M815.5,673.1L415.7,808.4c-8.6,2.9-17.9-1.7-20.8-10.3l-62.7-185.3c-2.9-8.6,1.7-17.9,10.3-20.8
				l399.8-135.3c8.6-2.9,17.9,1.7,20.8,10.3l62.7,185.3C828.7,660.9,824.1,670.2,815.5,673.1z"/>
			<circle class="st13" cx="488.9" cy="663.1" r="88"/>
			<circle class="st13" cx="662.4" cy="604.4" r="88"/>
			<g>
				
					<ellipse transform="matrix(0.7071 -0.7071 0.7071 0.7071 -324.886 540.8262)" class="st14" cx="490.4" cy="662.6" rx="69.6" ry="69.6"/>
				<path class="st15" d="M440.3,636.1c0,0,11.3,42.1,43.6,36.5s61.9-17.4,65.3-12.7s-1.7,52.4-49.8,65.2
					C451.2,738,412.5,662,440.3,636.1z"/>
				<path class="st16" d="M529.4,622.5c0,0-23.8-26.7-51.8-11.9C449.6,625.3,557.7,651.1,529.4,622.5z"/>
			</g>
			<g>
				<ellipse class="st14" cx="662.4" cy="604.4" rx="69.6" ry="69.6"/>
				<path class="st15" d="M612.3,577.9c0,0,11.3,42.1,43.6,36.5s61.9-17.4,65.3-12.7s-1.7,52.4-49.8,65.2
					C623.2,679.7,584.5,603.8,612.3,577.9z"/>
				<path class="st16" d="M701.4,564.3c0,0-23.8-26.7-51.8-11.9S729.7,592.9,701.4,564.3z"/>
			</g>
		</g>
	</g>
	<g class="st2">
		<ellipse class="st17" cx="594.5" cy="828.8" rx="12.3" ry="11.4"/>
		<ellipse class="st17" cx="627.1" cy="828.8" rx="12.3" ry="11.4"/>
		<ellipse class="st17" cx="659.7" cy="828.8" rx="12.3" ry="11.4"/>
		<ellipse class="st17" cx="594.5" cy="855.9" rx="12.3" ry="11.4"/>
		<ellipse class="st17" cx="627.1" cy="855.9" rx="12.3" ry="11.4"/>
		<ellipse class="st17" cx="659.7" cy="855.9" rx="12.3" ry="11.4"/>
		<ellipse class="st17" cx="594.5" cy="884.6" rx="12.3" ry="11.4"/>
		<ellipse class="st17" cx="627.1" cy="884.6" rx="12.3" ry="11.4"/>
		<ellipse class="st17" cx="659.7" cy="884.6" rx="12.3" ry="11.4"/>
	</g>
</g>
<g>
	<path class="st18" d="M91.7,1012.3l-8.4,21.9H49.4l47-127h34.6l46.3,127h-33.9l-8-21.9H91.7z M114,946.6L114,946.6L100.5,987h26.6
		L114,946.6z"/>
	<path class="st18" d="M282.3,907.3v69.5c0,15.9-0.7,31.7-12.4,43.5c-9.8,10.2-25.5,13.6-39.4,13.6c-13.8,0-29.5-3.8-39.4-13.6
		c-12-12.1-12.4-27.6-12.4-43.5v-69.5h31v65.4c0,16.3,1.1,33.6,21.1,33.6s21.1-17.4,21.1-33.6v-65L282.3,907.3L282.3,907.3z"/>
	<polygon class="st18" points="349.7,1034.6 318,1034.6 318,935.6 291.8,935.6 291.8,907.3 376,907.3 376,935.6 349.7,935.6 	"/>
	<path class="st18" d="M513.4,968.5c0,38.9-27,66.1-63.8,66.1c-37.2,0-63.8-27.2-63.8-66.1c0-36.3,30.6-61.6,63.8-61.6
		C482.8,906.9,513.4,932.2,513.4,968.5 M416.8,968.5c0,20.8,14.6,35.9,32.4,35.9s32.4-15.1,32.4-35.9c0-16.6-14.6-31.7-32.4-31.7
		C431.4,937.1,416.8,951.9,416.8,968.5 M446,903.5l-12.4-9.4l21.5-27.2l17.1,12.9L446,903.5z"/>
	<polygon class="st18" points="522.8,907.3 554.6,907.3 612.9,985.1 613.2,985.1 613.2,907.3 645.3,907.3 645.3,1034.6 
		613.2,1034.6 554.9,956.8 554.6,956.8 554.6,1034.6 522.8,1034.6 	"/>
	<path class="st18" d="M786.3,968.5c0,38.6-26.6,65.8-63.8,65.8c-36.8,0-63.8-27.2-63.8-65.8c0-35.9,30.6-61.2,63.8-61.2
		C755.7,906.9,786.3,932.2,786.3,968.5 M690.1,968.5c0,20.4,14.6,35.5,32.4,35.5c17.9,0,32.4-15.1,32.4-35.5
		c0-16.6-14.6-31.4-32.4-31.4C704.7,937.1,690.1,952.3,690.1,968.5"/>
	<polygon class="st18" points="812.2,907.3 843.5,907.3 868.3,975.3 894.6,907.3 926.3,907.3 944.9,1034.6 913.2,1034.6 904,961.3 
		903.7,961.3 874.2,1034.6 861.8,1034.6 833.7,961.3 833.3,961.3 823.1,1034.6 791.4,1034.6 	"/>
	<path class="st18" d="M996.6,1012.3l-8.4,21.9h-33.9l47-127h34.6l46.3,127h-33.9l-8-21.9H996.6z M1018.8,946.6L1018.8,946.6
		l-13.5,40.4h26.6L1018.8,946.6z"/>
	<path class="st18" d="M248.1,1161.6L248.1,1161.6c-5.1,7.2-12.8,12.1-21.5,12.1c-19.3,0-29.9-16.3-29.9-34.8
		c0-17.8,11.3-33.6,29.2-33.6c9.5,0,16.8,4.9,21.5,12.9h0.4v-52.5h12v106.2h-12L248.1,1161.6L248.1,1161.6z M248.8,1139.3
		c0-12.5-7.3-23.1-20-23.1c-12.4,0-19.7,11.3-19.7,23.1c0,12.1,6.9,23.4,19.7,23.4C241.5,1162.8,248.8,1152.2,248.8,1139.3"/>
	<path class="st18" d="M282.7,1141.6c0,11,7.3,21.5,18.6,21.5c9.1,0,14.2-4.9,18.6-12.5l10.2,6c-5.8,11.3-16.8,17.8-28.8,17.8
		c-19,0-30.6-14.7-30.6-34c0-20,10.2-34.8,30.2-34.8c19.7,0,29.2,15.1,29.2,34.4v1.9h-47.4V1141.6z M318.4,1132.2
		c-1.5-9.8-7.7-16.3-17.1-16.3s-16.4,6.8-17.9,16.3H318.4z"/>
	<path class="st18" d="M478,1119.7c0,31-23.7,54-52.5,54s-52.5-23.4-52.5-54c0-29.9,23.7-54,52.5-54S478,1089.8,478,1119.7
		 M465.6,1119.7c0-23.1-16.4-42-40.1-42s-40.1,19.3-40.1,42c0,23.8,18.2,42,40.1,42S465.6,1143.5,465.6,1119.7"/>
	<path class="st18" d="M534.5,1125.4c-4.7-5.7-10.6-8.7-17.9-8.7c-11.7,0-20.8,10.6-20.8,22.7c0,13.2,8.7,23.1,21.5,23.1
		c6.9,0,12.4-3.4,17.1-8.7v15.9c-5.5,3-10.9,4.2-17.1,4.2c-18.2,0-33.5-14.7-33.5-34c0-20,14.9-34.8,33.9-34.8
		c5.5,0,11.7,1.5,16.4,4.2v16.3H534.5z"/>
	<path class="st18" d="M593.2,1125.4c-4.7-5.7-10.6-8.7-17.9-8.7c-11.7,0-20.8,10.6-20.8,22.7c0,13.2,8.7,23.1,21.5,23.1
		c6.9,0,12.4-3.4,17.1-8.7v15.9c-5.5,3-10.9,4.2-17.1,4.2c-18.2,0-33.5-14.7-33.5-34c0-20,14.9-34.8,33.9-34.8
		c5.5,0,11.7,1.5,16.4,4.2L593.2,1125.4L593.2,1125.4z"/>
	<path class="st18" d="M623.1,1077.7c0,4.5-3.6,8.3-8.4,8.3c-4.7,0-8.4-3.8-8.4-8.3c0-4.9,3.6-8.7,8.4-8.7
		C619.4,1069,623.1,1072.8,623.1,1077.7 M620.9,1171.8h-12v-64.6h12V1171.8z"/>
	<path class="st18" d="M686.5,1161.6L686.5,1161.6c-5.1,7.2-12.8,12.1-21.5,12.1c-19.3,0-29.9-16.3-29.9-34.8
		c0-17.8,11.3-33.6,29.2-33.6c9.5,0,16.8,4.9,21.5,12.9h0.4v-52.5h12v106.2h-12L686.5,1161.6L686.5,1161.6z M687.2,1139.3
		c0-12.5-7.3-23.1-20-23.1c-12.4,0-19.7,11.3-19.7,23.1c0,12.1,6.9,23.4,19.7,23.4C679.9,1162.8,687.2,1152.2,687.2,1139.3"/>
	<path class="st18" d="M721.1,1141.6c0,11,7.3,21.5,18.6,21.5c9.1,0,14.2-4.9,18.6-12.5l10.2,6c-5.8,11.3-16.8,17.8-28.8,17.8
		c-19,0-30.6-14.7-30.6-34c0-20,10.2-34.8,30.2-34.8c19.7,0,29.2,15.1,29.2,34.4v1.9h-47.4V1141.6z M756.4,1132.2
		c-1.5-9.8-7.7-16.3-17.1-16.3c-9.5,0-16,6.8-17.9,16.3H756.4z"/>
	<path class="st18" d="M790.7,1115.9L790.7,1115.9c4-6.8,11.3-10.6,19-10.6c17.5,0,22.2,12.1,22.2,28v38.6h-12v-37
		c0-11-1.5-18.5-13.8-18.5c-15.3,0-15.3,14-15.3,25.7v29.5h-12v-64.6h12V1115.9z"/>
	<polygon class="st18" points="862.1,1171.8 850.1,1171.8 850.1,1118.6 843.5,1118.6 843.5,1107.2 850.1,1107.2 850.1,1082.6 
		862.1,1082.6 862.1,1107.2 873.8,1107.2 873.8,1118.6 862.1,1118.6 	"/>
	<path class="st18" d="M887.3,1141.6c0,11,7.3,21.5,18.6,21.5c9.1,0,14.2-4.9,18.6-12.5l10.2,6c-5.8,11.3-16.8,17.8-28.8,17.8
		c-19,0-30.6-14.7-30.6-34c0-20,10.2-34.8,30.2-34.8c19.7,0,29.2,15.1,29.2,34.4v1.9h-47.4V1141.6z M923,1132.2
		c-1.5-9.8-7.7-16.3-17.1-16.3c-9.5,0-16.4,6.8-17.9,16.3H923z"/>
	<path class="st18" d="M251.3,749.7v61.2c0,17,5.1,32.9,24.1,32.9c19.3,0,24.1-15.9,24.1-32.9v-61.2h12.4v65.8
		c0,23.1-13.8,40.4-36.8,40.4s-36.8-17.4-36.8-40.4v-65.8H251.3z"/>
	<path class="st18" d="M339.9,797.7L339.9,797.7c4-6.8,11.3-10.6,19-10.6c17.5,0,22.2,12.1,22.2,28v38.6h-12v-37
		c0-11-1.5-18.5-13.8-18.5c-15.3,0-15.3,14-15.3,25.7v29.5h-12v-64.6h12V797.7L339.9,797.7z"/>
	<path class="st18" d="M414.6,759.5c0,4.5-3.6,8.3-8.4,8.3c-4.4,0-8.4-3.8-8.4-8.3c0-4.9,3.6-8.7,8.4-8.7
		C410.6,750.8,414.6,754.6,414.6,759.5 M412.1,853.6h-12V789h12V853.6z"/>
	<polygon class="st18" points="452.5,829.4 470.4,789 483.9,789 452.5,855.9 421.2,789 434.7,789 	"/>
	<path class="st18" d="M497.7,823.4c0,11,7.3,21.5,18.6,21.5c9.1,0,14.2-4.9,18.6-12.5l10.2,6c-5.8,11.3-16.8,17.8-28.8,17.8
		c-19,0-30.6-14.7-30.6-34c0-20,10.2-34.8,30.2-34.8c19.7,0,29.2,15.1,29.2,34.4v1.9L497.7,823.4L497.7,823.4z M533.1,813.9
		c-1.5-9.8-7.7-16.3-17.1-16.3c-9.5,0-16,6.8-17.9,16.3H533.1z"/>
	<path class="st18" d="M568,799.6h0.4c2.9-7.6,9.1-12.5,17.1-12.5c3.6,0,6.9,1.1,9.8,3l-5.5,11.3c-2.2-1.9-4.4-2.6-7.3-2.6
		c-12.8,0-14.6,12.5-14.6,23.1v31.7h-12V789h12V799.6L568,799.6z"/>
	<path class="st18" d="M627.1,803.7c-1.5-3-4.4-5.7-8-5.7c-3.3,0-6.6,2.6-6.6,6.4c0,5.7,7.3,8.3,14.6,11.7
		c7.3,3.4,14.2,8.3,14.2,18.5c0,12.1-9.8,21.5-21.5,21.5c-9.1,0-18.2-5.3-21.5-14.4l10.2-4.9c2.6,4.9,5.5,8.3,11.3,8.3
		c5.1,0,9.5-3.4,9.5-9.1c0-3.4-1.5-5.3-4.4-7.2l-11.7-6.4c-6.9-3.8-12-7.6-12-16.3c0-10.6,8.4-18.9,18.2-18.9
		c7.7,0,13.8,4.2,17.1,11.3L627.1,803.7z"/>
	<path class="st18" d="M670.1,759.5c0,4.5-3.6,8.3-8.4,8.3c-4.4,0-8.4-3.8-8.4-8.3c0-4.9,3.6-8.7,8.4-8.7
		C666.1,750.8,670.1,754.6,670.1,759.5 M667.5,853.6h-12V789h12V853.6z"/>
	<path class="st18" d="M733.1,843.4L733.1,843.4c-5.1,7.2-12.8,12.1-21.5,12.1c-19.3,0-29.9-16.3-29.9-34.8
		c0-17.8,11.3-33.6,29.2-33.6c9.5,0,16.8,4.9,21.5,12.9h0.4v-50.3h12v103.9h-12L733.1,843.4L733.1,843.4z M733.9,821.5
		c0-12.5-7.3-23.1-20.4-23.1c-12.4,0-19.7,11-19.7,23.1s6.9,23.4,19.7,23.4C726.6,844.9,733.9,834,733.9,821.5"/>
	<path class="st18" d="M819.1,853.6h-12v-10.2h-0.4c-4.7,7.2-12,12.1-21.1,12.1c-19,0-29.9-16.3-29.9-34.8
		c0-17.8,11.3-33.6,29.5-33.6c9.1,0,16.8,4.9,21.5,12.9h0.4v-10.6h12V853.6L819.1,853.6z M807.8,821.5c0-12.5-7.3-23.1-20-23.1
		c-12.4,0-19.7,11-19.7,23.1s6.9,23.4,19.7,23.4S807.8,834,807.8,821.5"/>
	<path class="st18" d="M881.1,843.4L881.1,843.4c-5.1,7.2-12.8,12.1-21.5,12.1c-19,0-29.9-16.3-29.9-34.8
		c0-17.8,11.3-33.6,29.2-33.6c9.5,0,16.8,4.9,21.5,12.9h0.4v-50.3h12v103.9h-12v-10.2H881.1z M881.8,821.5c0-12.5-7.3-23.1-20-23.1
		c-12.4,0-19.7,11-19.7,23.1s6.9,23.4,19.7,23.4C874.5,844.9,881.8,834,881.8,821.5"/>
	<path class="st19" d="M627.1,140v16.6c-17.9-10.6-38.6-16.6-60.9-16.6c-68.1,0-123.5,57.1-123.5,127.8s55.4,127.8,123.5,127.8
		c22.2,0,42.6-6,60.9-16.6v16.6h61.6V140H627.1z M566.2,330.9c-34.3,0-61.6-28.7-61.6-63.9s27.7-63.9,61.6-63.9
		c30.6,0,56.1,23.1,60.9,53.3c0.4,3.4,0.7,6.8,0.7,10.2s-0.4,6.8-0.7,10.2C622.3,307.8,596.8,330.9,566.2,330.9"/>
	<path class="st19" d="M565.9,434.4c-68.1,0-123.2,57.1-123.2,127.8s55,127.8,123.2,127.8S689,632.9,689,562.2
		S634,434.4,565.9,434.4 M565.9,625.3c-33.9,0-61.6-28.7-61.6-63.9c0-35.2,27.7-63.9,61.6-63.9c33.9,0,61.6,28.7,61.6,63.9
		C627.1,596.6,599.7,625.3,565.9,625.3"/>
	<path class="st19" d="M409.9,140v450.1c2.6,66.1,52.5,119.8,114.8,124.7H352.3l0,0h-12.8c-68.1,0-123.2-57.1-123.2-127.8V140H409.9
		z"/>
	<path class="st19" d="M721.8,140v450.1C719.3,656.3,669.3,710,607,714.9h172.4l0,0h12.8c68.1,0,123.2-57.1,123.2-127.8V140H721.8z"
		/>
</g>
</svg>
